# xmcd
#
# Track frame offsets:
#	150
#	18969
#	42918
#	61018
#	74422
#	95041
#	118113
#	130226
#	149588
#	165758
#
# Disc length: 2523 seconds
#
# Revision: 0
# Processed by: cddbd v1.4PL0 Copyright (c) Steve Scherf et al.
# Submitted via: dBpowerAMP V4.0
#
DISCID=8709d90a
DTITLE=Tracy chapman - Crossroad
DYEAR=1989
DGENRE=Blues
TTITLE0=crossroad
TTITLE1=bridges
TTITLE2=freedom now
TTITLE3=material world
TTITLE4=be careful of my heart
TTITLE5=subcity
TTITLE6=born to fight
TTITLE7=a hundred years
TTITLE8=this time
TTITLE9=all that you have is your soul
EXTD=
EXTT0=
EXTT1=
EXTT2=
EXTT3=
EXTT4=
EXTT5=
EXTT6=
EXTT7=
EXTT8=
EXTT9=
PLAYORDER=
